<svg width="1200" height="1200" viewBox="0 0 1200 1200" fill="none" xmlns="http://www.w3.org/2000/svg">
<rect width="1200" height="1200" fill="#161722"/>
<path fill-rule="evenodd" clip-rule="evenodd" d="M895.078 495.116C849.332 378.541 732.662 300.923 601.826 300.002C491.21 299.584 388.495 354.21 331.009 444.003C273.515 533.808 269.656 645.68 320.836 738.875L326.626 749.625C328.84 753.577 329.267 757.84 327.984 761.78C319.714 782.594 312.448 805.072 306.65 827.909L306.034 832.828C306.034 855.79 318.899 871.568 344.431 871.028L348.683 870.541C371.876 865.663 394.718 859.379 417.067 851.726C420.03 851.013 424.882 851.29 429.261 852.996L450.761 864.583C450.809 864.726 450.845 864.833 451.07 864.958L452.513 865.439C568.278 923.411 709.659 907.418 807.891 825.237C906.138 743.043 940.828 611.703 895.078 495.116ZM592.676 341.971L601.523 341.839C714.127 342.655 814.542 409.458 853.906 509.77C893.265 610.071 863.421 723.063 778.883 793.787L771.948 799.398C690.173 863.341 576.634 876.229 481.33 832.403L472.266 828.078L472.655 828.127C472.552 828.099 472.427 828.067 472.286 828.031L472.081 827.978L458.778 820.707C453.988 818.129 450.188 816.177 447.126 814.771C432.536 809.043 417.727 808.198 403.797 811.852L390.611 816.165L377.629 820.082C373.328 821.324 369.049 822.503 364.781 823.623L352.347 826.71L349.372 837.747C354.747 816.576 361.483 795.739 369.543 775.353C374.729 759.548 373.143 743.716 365.563 730.207L359.864 719.621C315.752 639.296 319.073 543.057 368.537 465.795C416.461 390.936 500.931 344.471 592.676 341.971Z" fill="url(#paint0_linear)"/>
<path fill-rule="evenodd" clip-rule="evenodd" d="M601.219 393.471L594.141 393.577C520.745 395.577 453.169 432.749 414.829 492.636C375.258 554.446 372.602 631.437 407.891 695.696L412.45 704.165C418.514 714.972 419.783 727.638 415.634 740.282C409.187 756.591 403.798 773.261 399.498 790.198L401.878 781.368L411.825 778.899C415.239 778.002 418.662 777.059 422.103 776.066L432.488 772.932L443.038 769.481C454.181 766.559 466.029 767.235 477.701 771.817C480.151 772.941 483.191 774.503 487.023 776.566L497.665 782.382L497.829 782.424C497.941 782.454 498.041 782.48 498.124 782.501L497.813 782.462L505.064 785.923C581.307 820.983 672.139 810.673 737.558 759.518L743.107 755.03C810.737 698.45 834.612 608.057 803.125 527.816C771.634 447.567 691.301 394.124 601.219 393.471ZM518.284 600.005C518.284 584.88 505.401 572.63 489.522 572.63C473.644 572.63 460.76 584.88 460.76 600.005C460.76 615.13 473.644 627.38 489.522 627.38C505.401 627.38 518.284 615.13 518.284 600.005ZM630.094 600.005C630.094 584.88 617.21 572.63 601.332 572.63C585.453 572.63 572.569 584.88 572.569 600.005C572.569 615.13 585.453 627.38 601.332 627.38C617.21 627.38 630.094 615.13 630.094 600.005ZM741.903 600.005C741.903 584.88 729.019 572.63 713.141 572.63C697.262 572.63 684.379 584.88 684.379 600.005C684.379 615.13 697.262 627.38 713.141 627.38C729.019 627.38 741.903 615.13 741.903 600.005Z" fill="#FD297B"/>
<path d="M489.522 572.63C505.401 572.63 518.284 584.88 518.284 600.005C518.284 615.13 505.401 627.38 489.522 627.38C473.644 627.38 460.76 615.13 460.76 600.005C460.76 584.88 473.644 572.63 489.522 572.63Z" fill="#FD297B"/>
<path d="M601.332 572.63C617.21 572.63 630.094 584.88 630.094 600.005C630.094 615.13 617.21 627.38 601.332 627.38C585.453 627.38 572.569 615.13 572.569 600.005C572.569 584.88 585.453 572.63 601.332 572.63Z" fill="#FD297B"/>
<path d="M713.141 572.63C729.019 572.63 741.903 584.88 741.903 600.005C741.903 615.13 729.019 627.38 713.141 627.38C697.262 627.38 684.379 615.13 684.379 600.005C684.379 584.88 697.262 572.63 713.141 572.63Z" fill="#FD297B"/>
<path fill-rule="evenodd" clip-rule="evenodd" d="M904.445 486.376C857.247 360.086 736.874 276 601.884 275.003C487.756 274.549 381.78 333.728 322.469 431.003C263.151 528.292 259.169 649.486 311.974 750.448L317.948 762.094C320.232 766.375 320.672 770.993 319.349 775.261C310.816 797.81 303.319 822.161 297.337 846.901L296.702 852.23C296.702 877.106 309.975 894.199 336.318 893.614L340.704 893.086C364.634 887.802 388.201 880.994 411.26 872.704C414.316 871.931 419.323 872.23 423.841 874.079L446.023 886.632C446.073 886.787 446.11 886.903 446.342 887.038L447.831 887.559C567.271 950.362 713.14 933.036 814.491 844.006C915.857 754.963 951.648 612.679 904.445 486.376ZM592.443 320.468L601.572 320.325C717.75 321.209 821.353 393.58 861.966 502.251C902.575 610.911 871.784 733.318 784.562 809.936L777.406 816.014C693.036 885.286 575.892 899.248 477.562 851.77L468.211 847.084L468.612 847.137C468.506 847.108 468.377 847.073 468.231 847.033L468.02 846.976L454.295 839.1C449.353 836.306 445.433 834.191 442.273 832.668C427.22 826.464 411.94 825.548 397.568 829.506L383.963 834.179L370.569 838.422C366.132 839.768 361.717 841.045 357.314 842.259L344.485 845.602L341.416 857.559C346.961 834.624 353.911 812.051 362.226 789.966C367.577 772.844 365.941 755.692 358.12 741.057L352.24 729.589C306.729 642.571 310.154 538.312 361.189 454.611C410.635 373.514 497.786 323.177 592.443 320.468Z" fill="white"/>
<path fill-rule="evenodd" clip-rule="evenodd" d="M601.257 376.26L593.955 376.375C518.229 378.541 448.508 418.811 408.951 483.689C368.124 550.65 365.383 634.057 401.792 703.671L406.496 712.846C412.753 724.554 414.062 738.275 409.781 751.973C403.129 769.641 397.569 787.699 393.133 806.047L395.588 796.482L405.851 793.807C409.374 792.836 412.906 791.814 416.456 790.738L427.171 787.343L438.055 783.605C449.552 780.439 461.776 781.171 473.818 786.135C476.346 787.353 479.482 789.045 483.436 791.28L494.416 797.581L494.585 797.627C494.701 797.658 494.805 797.686 494.89 797.71L494.569 797.667L502.05 801.416C580.714 839.398 674.429 828.229 741.925 772.811L747.65 767.949C817.427 706.654 842.06 608.728 809.573 521.801C777.082 434.864 694.2 376.967 601.257 376.26ZM515.69 600.005C515.69 583.62 502.398 570.349 486.015 570.349C469.632 570.349 456.34 583.62 456.34 600.005C456.34 616.391 469.632 629.662 486.015 629.662C502.398 629.662 515.69 616.391 515.69 600.005ZM631.049 600.005C631.049 583.62 617.757 570.349 601.374 570.349C584.991 570.349 571.699 583.62 571.699 600.005C571.699 616.391 584.991 629.662 601.374 629.662C617.757 629.662 631.049 616.391 631.049 600.005ZM746.408 600.005C746.408 583.62 733.115 570.349 716.733 570.349C700.35 570.349 687.057 583.62 687.057 600.005C687.057 616.391 700.35 629.662 716.733 629.662C733.115 629.662 746.408 616.391 746.408 600.005Z" fill="url(#paint1_linear)"/>
<path d="M486.015 570.349C502.398 570.349 515.69 583.62 515.69 600.005C515.69 616.391 502.398 629.662 486.015 629.662C469.632 629.662 456.34 616.391 456.34 600.005C456.34 583.62 469.632 570.349 486.015 570.349Z" fill="url(#paint2_linear)"/>
<path d="M601.374 570.349C617.757 570.349 631.049 583.62 631.049 600.005C631.049 616.391 617.757 629.662 601.374 629.662C584.991 629.662 571.699 616.391 571.699 600.005C571.699 583.62 584.991 570.349 601.374 570.349Z" fill="url(#paint3_linear)"/>
<path d="M716.733 570.349C733.115 570.349 746.408 583.62 746.408 600.005C746.408 616.391 733.115 629.662 716.733 629.662C700.35 629.662 687.057 616.391 687.057 600.005C687.057 583.62 700.35 570.349 716.733 570.349Z" fill="url(#paint4_linear)"/>
<path fill-rule="evenodd" clip-rule="evenodd" d="M951.773 468.82C897.314 323.101 758.421 226.079 602.664 224.928C470.978 224.405 348.698 292.688 280.262 404.929C211.818 517.185 207.223 657.025 268.152 773.519L275.045 786.957C277.681 791.896 278.189 797.225 276.662 802.15C266.817 828.168 258.166 856.265 251.264 884.811L250.531 890.96C250.531 919.663 265.846 939.385 296.241 938.711L301.303 938.102C328.914 932.004 356.106 924.149 382.713 914.583C386.239 913.691 392.016 914.037 397.229 916.171L422.824 930.655C422.882 930.833 422.925 930.967 423.193 931.123L424.911 931.725C562.725 1004.19 731.036 984.198 847.979 881.471C964.94 778.729 1006.24 614.555 951.773 468.82ZM591.771 277.389L602.303 277.224C736.355 278.243 855.897 361.748 902.759 487.138C949.615 612.514 914.087 753.754 813.446 842.159L805.189 849.172C707.839 929.101 572.673 945.211 459.216 890.429L448.426 885.022L448.888 885.084C448.766 885.05 448.617 885.009 448.449 884.964L448.206 884.898L432.369 875.81C426.666 872.586 422.143 870.146 418.497 868.389C401.129 861.229 383.498 860.173 366.915 864.74L351.217 870.132L335.762 875.028C330.642 876.58 325.548 878.054 320.467 879.455L305.665 883.313L302.123 897.109C308.522 870.646 316.541 844.599 326.136 819.116C332.31 799.36 330.422 779.57 321.398 762.684L314.613 749.451C262.1 649.046 266.053 528.747 324.938 432.169C381.992 338.596 482.55 280.514 591.771 277.389Z" fill="white"/>
<path fill-rule="evenodd" clip-rule="evenodd" d="M601.596 316.023L592.327 316.168C496.213 318.918 407.722 370.03 357.515 452.374C305.695 537.363 302.217 643.226 348.429 731.583L354.399 743.227C362.34 758.087 364.001 775.503 358.568 792.888C350.125 815.313 343.068 838.234 337.438 861.522L340.554 849.381L353.58 845.986C358.051 844.753 362.534 843.456 367.04 842.09L380.64 837.782L394.454 833.037C409.047 829.018 424.562 829.948 439.846 836.248C443.055 837.794 447.035 839.942 452.054 842.778L465.99 850.776L466.204 850.834C466.352 850.874 466.483 850.909 466.591 850.939L466.184 850.885L475.679 855.644C575.521 903.852 694.467 889.675 780.135 819.337L787.402 813.166C875.965 735.369 907.23 611.078 865.996 500.747C824.758 390.404 719.561 316.92 601.596 316.023ZM492.992 600.007C492.992 579.21 476.12 562.366 455.327 562.366C434.533 562.366 417.662 579.21 417.662 600.007C417.662 620.804 434.533 637.648 455.327 637.648C476.12 637.648 492.992 620.804 492.992 600.007ZM639.409 600.007C639.409 579.21 622.537 562.366 601.744 562.366C580.95 562.366 564.079 579.21 564.079 600.007C564.079 620.804 580.95 637.648 601.744 637.648C622.537 637.648 639.409 620.804 639.409 600.007ZM785.826 600.007C785.826 579.21 768.954 562.366 748.161 562.366C727.367 562.366 710.496 579.21 710.496 600.007C710.496 620.804 727.367 637.648 748.161 637.648C768.954 637.648 785.826 620.804 785.826 600.007Z" fill="url(#paint5_linear)"/>
<path d="M455.327 562.366C476.12 562.366 492.992 579.21 492.992 600.007C492.992 620.804 476.12 637.648 455.327 637.648C434.533 637.648 417.662 620.804 417.662 600.007C417.662 579.21 434.533 562.366 455.327 562.366Z" fill="url(#paint6_linear)"/>
<path d="M601.744 562.366C622.537 562.366 639.409 579.21 639.409 600.007C639.409 620.804 622.537 637.648 601.744 637.648C580.95 637.648 564.079 620.804 564.079 600.007C564.079 579.21 580.95 562.366 601.744 562.366Z" fill="url(#paint7_linear)"/>
<path d="M748.161 562.366C768.954 562.366 785.826 579.21 785.826 600.007C785.826 620.804 768.954 637.648 748.161 637.648C727.367 637.648 710.496 620.804 710.496 600.007C710.496 579.21 727.367 562.366 748.161 562.366Z" fill="url(#paint8_linear)"/>
<ellipse cx="313.5" cy="888.5" rx="19.5" ry="17.5" fill="white"/>
<defs>
<linearGradient id="paint0_linear" x1="600" y1="300" x2="600" y2="900" gradientUnits="userSpaceOnUse">
<stop stop-color="#FD297B"/>
<stop offset="1" stop-color="#FF655B"/>
</linearGradient>
<linearGradient id="paint1_linear" x1="600" y1="340" x2="600" y2="860" gradientUnits="userSpaceOnUse">
<stop stop-color="#FD297B"/>
<stop offset="1" stop-color="#FD297B" stop-opacity="0"/>
<stop offset="1" stop-color="#65D2E9"/>
</linearGradient>
<linearGradient id="paint2_linear" x1="600" y1="340" x2="600" y2="860" gradientUnits="userSpaceOnUse">
<stop stop-color="#FD297B"/>
<stop offset="1" stop-color="#FD297B" stop-opacity="0"/>
<stop offset="1" stop-color="#65D2E9"/>
</linearGradient>
<linearGradient id="paint3_linear" x1="600" y1="340" x2="600" y2="860" gradientUnits="userSpaceOnUse">
<stop stop-color="#FD297B"/>
<stop offset="1" stop-color="#FD297B" stop-opacity="0"/>
<stop offset="1" stop-color="#65D2E9"/>
</linearGradient>
<linearGradient id="paint4_linear" x1="600" y1="340" x2="600" y2="860" gradientUnits="userSpaceOnUse">
<stop stop-color="#FD297B"/>
<stop offset="1" stop-color="#FD297B" stop-opacity="0"/>
<stop offset="1" stop-color="#65D2E9"/>
</linearGradient>
<linearGradient id="paint5_linear" x1="600" y1="270" x2="600" y2="930" gradientUnits="userSpaceOnUse">
<stop stop-color="#FD297B"/>
<stop offset="1" stop-color="#FF655B"/>
</linearGradient>
<linearGradient id="paint6_linear" x1="600" y1="270" x2="600" y2="930" gradientUnits="userSpaceOnUse">
<stop stop-color="#FD297B"/>
<stop offset="1" stop-color="#FF655B"/>
</linearGradient>
<linearGradient id="paint7_linear" x1="600" y1="270" x2="600" y2="930" gradientUnits="userSpaceOnUse">
<stop stop-color="#FD297B"/>
<stop offset="1" stop-color="#FF655B"/>
</linearGradient>
<linearGradient id="paint8_linear" x1="600" y1="270" x2="600" y2="930" gradientUnits="userSpaceOnUse">
<stop stop-color="#FD297B"/>
<stop offset="1" stop-color="#FF655B"/>
</linearGradient>
</defs>
</svg>
